<svg xmlns="http://www.w3.org/2000/svg" width="1400" height="860" viewBox="0 0 1400 860">
  <defs>
    <style>
      .title { font: 700 30px Arial, sans-serif; fill: #1f1f1f; }
      .subtitle { font: italic 18px Arial, sans-serif; fill: #555555; }
      .layer-label { font: 700 24px Arial, sans-serif; fill: #2b2b2b; }
      .body { font: 500 18px Arial, sans-serif; fill: #333333; }
      .small { font: 500 16px Arial, sans-serif; fill: #444444; }
      .legend { font: 700 22px Arial, sans-serif; fill: #222222; }
      .note { font: 700 16px Arial, sans-serif; fill: #245c34; }
    </style>
    <marker id="arrow-black" viewBox="0 0 10 10" refX="9" refY="5" markerWidth="8" markerHeight="8" orient="auto-start-reverse">
      <path d="M 0 0 L 10 5 L 0 10 z" fill="#222222"/>
    </marker>
    <marker id="arrow-red" viewBox="0 0 10 10" refX="9" refY="5" markerWidth="8" markerHeight="8" orient="auto-start-reverse">
      <path d="M 0 0 L 10 5 L 0 10 z" fill="#d74444"/>
    </marker>
  </defs>

  <text x="700" y="52" text-anchor="middle" class="title">Layered View: 4-Layer Allowed-to-Use</text>
  <text x="700" y="82" text-anchor="middle" class="subtitle">QAS-3 Extensibility / Modifiability · the architecture localizes change by restricting usage dependencies</text>

  <rect x="98" y="120" width="880" height="90" rx="0" fill="#f6dddd" stroke="#222222" stroke-width="3"/>
  <text x="538" y="173" text-anchor="middle" class="layer-label">Presentation</text>
  <text x="538" y="200" text-anchor="middle" class="body">BaseGraphTab · GraphTabManager · 14 Tabs</text>
  <rect x="700" y="135" width="246" height="34" rx="17" fill="#ebf7ea" stroke="#5c9e5c" stroke-width="2"/>
  <text x="823" y="158" text-anchor="middle" class="note">New graph tab stays here</text>

  <rect x="98" y="252" width="880" height="90" rx="0" fill="#f6dddd" stroke="#222222" stroke-width="3"/>
  <text x="538" y="305" text-anchor="middle" class="layer-label">Domain</text>
  <text x="538" y="332" text-anchor="middle" class="body">WatchMath · WatchDiagnostics · Measurement · WatchMetrics</text>

  <rect x="98" y="384" width="880" height="90" rx="0" fill="#f6dddd" stroke="#222222" stroke-width="3"/>
  <text x="538" y="437" text-anchor="middle" class="layer-label">Signal Processing</text>
  <text x="538" y="464" text-anchor="middle" class="body">DSPWorker · MeasurementEngine · FilterChain · BeatDetector</text>

  <rect x="98" y="516" width="880" height="90" rx="0" fill="#f6dddd" stroke="#222222" stroke-width="3"/>
  <text x="538" y="569" text-anchor="middle" class="layer-label">Acquisition</text>
  <text x="538" y="596" text-anchor="middle" class="body">IAudioSource · AudioWorker · PlaybackWorker · SimWorker · AudioRingBuffer</text>
  <rect x="690" y="531" width="256" height="34" rx="17" fill="#ebf7ea" stroke="#5c9e5c" stroke-width="2"/>
  <text x="818" y="554" text-anchor="middle" class="note">New audio source stays here</text>

  <rect x="1050" y="120" width="180" height="486" rx="0" fill="#f6dddd" stroke="#222222" stroke-width="3"/>
  <text x="1140" y="365" text-anchor="middle" transform="rotate(-90 1140 365)" class="layer-label">Shared Domain Objects</text>
  <text x="1140" y="145" text-anchor="middle" class="small">Measurement</text>
  <text x="1140" y="170" text-anchor="middle" class="small">SignalFrame</text>
  <text x="1140" y="195" text-anchor="middle" class="small">WatchMetrics</text>

  <line x1="538" y1="210" x2="538" y2="252" stroke="#222222" stroke-width="4" marker-end="url(#arrow-black)"/>
  <line x1="538" y1="342" x2="538" y2="384" stroke="#222222" stroke-width="4" marker-end="url(#arrow-black)"/>
  <line x1="538" y1="474" x2="538" y2="516" stroke="#222222" stroke-width="4" marker-end="url(#arrow-black)"/>

  <line x1="978" y1="165" x2="1050" y2="165" stroke="#222222" stroke-width="4" marker-end="url(#arrow-black)"/>
  <line x1="978" y1="297" x2="1050" y2="297" stroke="#222222" stroke-width="4" marker-end="url(#arrow-black)"/>
  <line x1="978" y1="429" x2="1050" y2="429" stroke="#222222" stroke-width="4" marker-end="url(#arrow-black)"/>

  <path d="M 180 208 C 120 260, 120 410, 180 516" fill="none" stroke="#d74444" stroke-width="4" stroke-dasharray="16 12" marker-end="url(#arrow-red)"/>
  <path d="M 250 342 C 190 390, 190 470, 250 516" fill="none" stroke="#d74444" stroke-width="4" stroke-dasharray="16 12" marker-end="url(#arrow-red)"/>
  <path d="M 820 252 C 900 240, 930 220, 978 165" fill="none" stroke="#d74444" stroke-width="4" stroke-dasharray="16 12" marker-end="url(#arrow-red)"/>
  <path d="M 820 384 C 900 360, 930 332, 978 297" fill="none" stroke="#d74444" stroke-width="4" stroke-dasharray="16 12" marker-end="url(#arrow-red)"/>
  <path d="M 820 516 C 900 490, 930 462, 978 429" fill="none" stroke="#d74444" stroke-width="4" stroke-dasharray="16 12" marker-end="url(#arrow-red)"/>

  <text x="184" y="645" class="legend">Key:</text>
  <rect x="98" y="668" width="1240" height="116" rx="0" fill="#ffffff" stroke="#222222" stroke-width="2"/>
  <rect x="132" y="706" width="180" height="42" fill="#f6dddd" stroke="#222222" stroke-width="2"/>
  <text x="336" y="733" class="body">layer</text>
  <line x1="438" y1="727" x2="532" y2="727" stroke="#222222" stroke-width="4" marker-end="url(#arrow-black)"/>
  <text x="554" y="718" class="body">allowed</text>
  <text x="554" y="742" class="body">to use</text>
  <path d="M 750 747 C 784 718, 826 706, 876 727" fill="none" stroke="#d74444" stroke-width="4" stroke-dasharray="16 12" marker-end="url(#arrow-red)"/>
  <text x="900" y="718" class="body">usage dependency</text>
  <text x="900" y="742" class="body">that would violate the layered architecture</text>

  <text x="98" y="830" class="small">Primary message: only adjacent downward usage is allowed; future changes stay inside the owning layer instead of rippling across the stack.</text>
</svg>
